<?xml version="1.0" encoding="UTF-8"?>
<svg width="631px" height="447px" viewBox="0 0 631 447" version="1.1" xmlns="http://www.w3.org/2000/svg" xmlns:xlink="http://www.w3.org/1999/xlink">
    <!-- Generator: Sketch 50.2 (55047) - http://www.bohemiancoding.com/sketch -->
    <title>42e</title>
    <desc>Created with Sketch.</desc>
    <defs></defs>
    <g id="Page-1" stroke="none" stroke-width="1" fill="none" fill-rule="evenodd">
        <g id="42e" transform="translate(1.000000, 0.000000)">
            <polygon id="Path-2" stroke="#343434" fill="#343434" points="89.5 7.5 6.5 89 89.5 89"></polygon>
            <polygon id="Path-2" stroke="#030304" fill="#030304" transform="translate(577.500000, 44.750000) rotate(90.000000) translate(-577.500000, -44.750000) " points="621.75 0.25 533.25 89.25 621.75 88.75"></polygon>
            <polygon id="Path-2" stroke="#CDCCCC" fill="#CDCCCC" transform="translate(407.250000, 398.250000) rotate(-90.000000) translate(-407.250000, -398.250000) " points="449 356.5 365.5 440 449 440"></polygon>
            <polygon id="Path-2" stroke="#030304" fill="#030304" transform="translate(224.750000, 395.250000) rotate(-90.000000) translate(-224.750000, -395.250000) " points="269 350.5 180.5 440 269 440"></polygon>
            <polygon id="Path-3" stroke="#030304" fill="#030304" points="5.5 89.5 0 95.5 0 178.5 89.5 178.5 89.5 89.5"></polygon>
            <polygon id="Path-3" stroke="#030304" fill="#030304" points="180 89 180 178 269.5 178 269.5 89"></polygon>
            <polygon id="Path-3" stroke="#343434" fill="#343434" points="540 89 540 178.5 629 178.5 628.5 95.5 622 89"></polygon>
            <polygon id="Path-3" stroke="#030304" fill="#030304" transform="translate(404.500000, 312.250000) rotate(180.000000) translate(-404.500000, -312.250000) " points="360 268 360 356.5 449 356.5 448.5 273.5 443.5 268"></polygon>
            <polygon id="Path-3" stroke="#030304" fill="#030304" transform="translate(224.750000, 309.500000) rotate(180.000000) translate(-224.750000, -309.500000) " points="180 268 180 351 269.5 351 269.5 268"></polygon>
            <polygon id="Path-3" stroke="#030304" fill="#030304" transform="translate(494.250000, 401.500000) rotate(180.000000) translate(-494.250000, -401.500000) " points="449.5 357 449 446 539.5 446 539.5 363 533.938202 357"></polygon>
            <polygon id="Path-3" stroke="#E84010" fill="#E84010" transform="translate(584.250000, 401.500000) rotate(180.000000) translate(-584.250000, -401.500000) " points="539.5 357 539.5 446 629 446 629 357"></polygon>
            <polygon id="Path-3" stroke="#030304" fill="#030304" points="360.5 0.5 360.5 88 533 88.5 533 0.5"></polygon>
            <polygon id="Path-4" stroke="#E84010" fill="#E84010" points="49 191 49 197.5 25 197.5 25 217.5 45 217.5 45 223.5 25 223.5 25 247.5 49 247.5 49 253.5 18.5 253.5 18.5 191"></polygon>
            <polygon id="Path-4" stroke="#E84010" fill="#E84010" points="471.5 191 471.5 197.5 447.5 197.5 447.5 217.5 467.5 217.5 467.5 223.5 447.5 223.5 447.5 247.5 471.5 247.5 471.5 253.5 441 253.5 441 191"></polygon>
            <polygon id="Path-4" stroke="#E84010" fill="#E84010" points="236 191 236 197.5 212 197.5 212 217.5 232 217.5 232 223.5 212 223.5 212 247.5 236 247.5 236 253.5 205.5 253.5 205.5 191"></polygon>
            <polygon id="Path-4" stroke="#E84010" fill="#E84010" points="377 191 377 197.5 353 197.5 353 217.5 373 217.5 373 223.5 353 223.5 353 247.5 377 247.5 377 253.5 346.5 253.5 346.5 191"></polygon>
            <polygon id="Path-5" stroke="#E84010" fill="#E84010" transform="translate(66.250000, 222.000000) rotate(90.000000) translate(-66.250000, -222.000000) " points="97.25 225.25 35.25 225.25 35.25 218.75 97.25 218.75"></polygon>
            <polygon id="Path-5" stroke="#E84010" fill="#E84010" transform="translate(92.250000, 222.000000) rotate(90.000000) translate(-92.250000, -222.000000) " points="123.25 225.25 61.25 225.25 61.25 218.75 123.25 218.75"></polygon>
            <polygon id="Path-5" stroke="#E84010" fill="#E84010" transform="translate(126.250000, 222.500000) rotate(90.000000) translate(-126.250000, -222.500000) " points="156.75 225.75 95.75 225.75 95.75 219.25 156.75 219.25"></polygon>
            <polygon id="Path-5" stroke="#E84010" fill="#E84010" transform="translate(163.250000, 222.500000) rotate(90.000000) translate(-163.250000, -222.500000) " points="193.75 225.75 132.75 225.75 132.75 219.25 193.75 219.25"></polygon>
            <polygon id="Path-5" stroke="#E84010" fill="#E84010" transform="translate(182.191047, 237.657419) rotate(63.000000) translate(-182.191047, -237.657419) " points="199.389602 240.594473 164.992492 240.594473 164.992492 234.720366 199.389602 234.720366"></polygon>
            <path d="M192.231007,215.066643 C191.448839,210.727896 188.830239,207.423546 184.375206,205.153594 C177.692657,201.748665 174.111657,202.168707 172.628864,205.078852 C169.955844,203.71688 171.737857,204.624861 167.282824,202.354909 C169.219608,198.553757 176.398584,195.47767 186.645159,200.698561 C193.476209,204.179155 196.97167,209.800831 197.131543,217.56359 L192.231007,215.066643 Z" id="Path-5" stroke="#E84010" fill="#E84010" transform="translate(182.207184, 207.744545) rotate(63.000000) translate(-182.207184, -207.744545) "></path>
            <polygon id="Path-5" stroke="#E84010" fill="#E84010" points="180 225.874107 160 225.874107 160 220 180 220"></polygon>
            <polygon id="Path-5" stroke="#E84010" fill="#E84010" points="180 197.874107 160 197.874107 160 192 180 192"></polygon>
            <polygon id="Path-5" stroke="#E84010" fill="#E84010" transform="translate(303.250000, 222.500000) rotate(90.000000) translate(-303.250000, -222.500000) " points="333.75 225.75 272.75 225.75 272.75 219.25 333.75 219.25"></polygon>
            <polygon id="Path-5" stroke="#E84010" fill="#E84010" transform="translate(538.250000, 222.500000) rotate(90.000000) translate(-538.250000, -222.500000) " points="568.75 225.75 507.75 225.75 507.75 219.25 568.75 219.25"></polygon>
            <polygon id="Path-5" stroke="#E84010" fill="#E84010" transform="translate(488.750000, 217.500000) rotate(90.000000) translate(-488.750000, -217.500000) " points="514.25 220.75 463.25 220.75 463.25 214.25 514.25 214.25"></polygon>
            <polygon id="Path-5" stroke="#E84010" fill="#E84010" transform="translate(512.750000, 217.500000) rotate(90.000000) translate(-512.750000, -217.500000) " points="538.25 220.75 487.25 220.75 487.25 214.25 538.25 214.25"></polygon>
            <polygon id="Path-5" stroke="#E84010" fill="#E84010" transform="translate(322.191047, 237.657419) rotate(63.000000) translate(-322.191047, -237.657419) " points="339.389602 240.594473 304.992492 240.594473 304.992492 234.720366 339.389602 234.720366"></polygon>
            <path d="M332.231007,215.066643 C331.448839,210.727896 328.830239,207.423546 324.375206,205.153594 C317.692657,201.748665 314.111657,202.168707 312.628864,205.078852 C309.955844,203.71688 311.737857,204.624861 307.282824,202.354909 C309.219608,198.553757 316.398584,195.47767 326.645159,200.698561 C333.476209,204.179155 336.97167,209.800831 337.131543,217.56359 L332.231007,215.066643 Z" id="Path-5" stroke="#E84010" fill="#E84010" transform="translate(322.207184, 207.744545) rotate(63.000000) translate(-322.207184, -207.744545) "></path>
            <polygon id="Path-5" stroke="#E84010" fill="#E84010" points="320 225.874107 300 225.874107 300 220 320 220"></polygon>
            <polygon id="Path-5" stroke="#E84010" fill="#E84010" points="320 197.874107 300 197.874107 300 192 320 192"></polygon>
            <polygon id="Path-5" stroke="#E84010" fill="#E84010" transform="translate(557.191047, 237.657419) rotate(63.000000) translate(-557.191047, -237.657419) " points="574.389602 240.594473 539.992492 240.594473 539.992492 234.720366 574.389602 234.720366"></polygon>
            <path d="M567.231007,215.066643 C566.448839,210.727896 563.830239,207.423546 559.375206,205.153594 C552.692657,201.748665 549.111657,202.168707 547.628864,205.078852 C544.955844,203.71688 546.737857,204.624861 542.282824,202.354909 C544.219608,198.553757 551.398584,195.47767 561.645159,200.698561 C568.476209,204.179155 571.97167,209.800831 572.131543,217.56359 L567.231007,215.066643 Z" id="Path-5" stroke="#E84010" fill="#E84010" transform="translate(557.207184, 207.744545) rotate(63.000000) translate(-557.207184, -207.744545) "></path>
            <path d="M509.270365,251.17714 C509.416573,247.688146 507.539594,244.981323 503.639426,243.056672 C499.739259,241.132021 496.428827,241.170692 493.70813,243.172685 L487.916587,240.221746 C492.881213,235.75336 498.839585,235.290307 505.791704,238.832589 C512.743823,242.374871 515.833891,247.473367 515.061907,254.128078 L509.270365,251.17714 Z" id="Path-5" stroke="#E84010" fill="#E84010" transform="translate(501.547114, 245.305548) rotate(153.000000) translate(-501.547114, -245.305548) "></path>
            <path d="M610.888471,207.225421 C611.068868,205.997166 611.107783,201.99193 605.257532,199.104953 C599.407281,196.217977 594.568273,199.834345 591.84433,205.180385 C589.120387,210.526424 590.649943,215.233913 593.516009,220.622389 C596.382075,226.010864 603.476178,234.114795 598.936273,243.02486 C594.396368,251.934925 586.453014,255.182705 578.525836,251.143606 C570.598657,247.104506 571.04564,234.986667 572.634606,231.868144 C573.971116,232.54913 575.343984,233.158759 577.535142,234.365092 C576.989272,235.209283 575.676744,243.519127 581.194803,246.330718 C586.712862,249.14231 591.984293,245.655444 594.481241,240.754908 C596.978189,235.854372 591.757978,228.705237 588.800032,223.269946 C585.842087,217.834656 583.084875,210.256992 586.489804,203.574443 C589.894733,196.891894 597.098074,189.338917 607.526252,194.65234 C617.954431,199.965762 617.087406,208.502601 616.680013,210.17636 C616.408418,211.292199 615.403581,213.70713 613.665503,217.421154 L607.87396,214.470215 C609.763369,210.45919 610.768205,208.044258 610.888471,207.225421 Z" id="Path-5" stroke="#E84010" fill="#E84010" transform="translate(594.292539, 222.859371) rotate(153.000000) translate(-594.292539, -222.859371) "></path>
            <polygon id="Path-5" stroke="#E84010" fill="#E84010" points="555 225.874107 535 225.874107 535 220 555 220"></polygon>
            <polygon id="Path-5" stroke="#E84010" fill="#E84010" points="555 197.874107 535 197.874107 535 192 555 192"></polygon>
            <polygon id="Path-5" stroke="#E84010" fill="#E84010" transform="translate(256.250000, 222.500000) rotate(90.000000) translate(-256.250000, -222.500000) " points="286.75 225.75 225.75 225.75 225.75 219.25 286.75 219.25"></polygon>
            <path d="M285.231007,215.066643 C284.448839,210.727896 281.830239,207.423546 277.375206,205.153594 C270.692657,201.748665 267.111657,202.168707 265.628864,205.078852 C262.955844,203.71688 264.737857,204.624861 260.282824,202.354909 C262.219608,198.553757 269.398584,195.47767 279.645159,200.698561 C286.476209,204.179155 289.97167,209.800831 290.131543,217.56359 L285.231007,215.066643 Z" id="Path-5" stroke="#E84010" fill="#E84010" transform="translate(275.207184, 207.744545) rotate(63.000000) translate(-275.207184, -207.744545) "></path>
            <polygon id="Path-5" stroke="#E84010" fill="#E84010" points="273 225.874107 253 225.874107 253 220 273 220"></polygon>
            <polygon id="Path-5" stroke="#E84010" fill="#E84010" points="273 197.874107 253 197.874107 253 192 273 192"></polygon>
            <polygon id="Path-5" stroke="#E84010" fill="#E84010" points="142 197 110 197 110 192 142 192"></polygon>
            <polygon id="Path-5" stroke="#E84010" fill="#E84010" transform="translate(78.808489, 222.160697) rotate(70.000000) translate(-78.808489, -222.160697) " points="110.418606 225.480704 46.994918 225.434905 46.3433212 220.250229 46.8563515 218.84069 110.811225 218.934905 111.273657 223.131472"></polygon>
            <polygon id="Path-5" stroke="#E84010" fill="#E84010" transform="translate(394.250000, 222.000000) rotate(90.000000) translate(-394.250000, -222.000000) " points="425.25 225.25 363.25 225.25 363.25 218.75 425.25 218.75"></polygon>
            <polygon id="Path-5" stroke="#E84010" fill="#E84010" transform="translate(420.250000, 222.000000) rotate(90.000000) translate(-420.250000, -222.000000) " points="451.25 225.25 389.25 225.25 389.25 218.75 451.25 218.75"></polygon>
            <polygon id="Path-5" stroke="#E84010" fill="#E84010" transform="translate(406.808489, 222.160697) rotate(70.000000) translate(-406.808489, -222.160697) " points="438.418606 225.480704 374.994918 225.434905 374.343321 220.250229 374.856351 218.84069 438.811225 218.934905 439.273657 223.131472"></polygon>
        </g>
    </g>
</svg>